<?xml version="1.0" standalone="no"?>
<!DOCTYPE svg PUBLIC "-//W3C//DTD SVG 20010904//EN"
 "http://www.w3.org/TR/2001/REC-SVG-20010904/DTD/svg10.dtd">
<svg version="1.0" xmlns="http://www.w3.org/2000/svg"
 width="355.000000pt" height="355.000000pt" viewBox="0 0 355.000000 355.000000"
 preserveAspectRatio="xMidYMid meet">
<metadata>
Created by potrace 1.11, written by Peter Selinger 2001-2013
</metadata>
<g transform="translate(0.000000,355.000000) scale(0.100000,-0.100000)"
fill="#000000" stroke="none">
<path d="M0 1775 l0 -1775 1775 0 1775 0 0 1775 0 1775 -1775 0 -1775 0 0
-1775z m779 683 c75 -237 384 -1242 397 -1292 10 -36 21 -66 24 -66 3 0 18 48
33 108 15 59 110 370 210 692 l182 585 108 3 c70 2 107 -1 107 -8 0 -9 -447
-1471 -496 -1623 l-16 -48 -141 3 -141 3 -258 830 c-141 457 -257 833 -258
838 0 4 54 7 119 7 l119 0 11 -32z m1921 7 c144 -39 241 -109 289 -208 87
-178 52 -400 -85 -533 -31 -30 -55 -56 -53 -58 2 -1 25 -15 51 -29 121 -70
205 -198 215 -329 15 -205 -79 -367 -264 -456 l-78 -37 -372 -3 -373 -3 0 842
0 841 303 -5 c248 -3 314 -7 367 -22z"/>
<path d="M2080 1634 l0 -806 293 5 c231 3 304 8 352 21 149 41 259 123 311
233 23 48 28 75 32 158 3 86 1 108 -19 160 -32 85 -117 169 -227 222 l-83 41
53 29 c68 39 133 109 166 181 24 51 27 68 27 172 0 105 -2 120 -28 171 -33 69
-100 132 -172 165 -98 45 -169 54 -447 54 l-258 0 0 -806z m546 622 c123 -38
179 -116 178 -251 0 -123 -46 -208 -139 -258 -36 -20 -58 -22 -227 -25 l-188
-4 0 275 c0 150 3 277 8 282 12 13 312 -2 368 -19z m23 -722 c147 -33 228
-114 238 -237 8 -90 -15 -153 -73 -207 -85 -78 -173 -99 -416 -100 l-148 0 0
280 0 280 166 0 c113 0 186 -5 233 -16z"/>
<path d="M2300 1995 l0 -238 150 5 c181 7 226 23 274 101 57 93 45 243 -26
302 -58 49 -93 58 -250 63 l-148 4 0 -237z"/>
<path d="M2300 1270 l0 -230 148 0 c162 0 236 13 301 54 67 42 92 90 93 175 0
72 -18 116 -65 156 -67 58 -141 75 -323 75 l-154 0 0 -230z"/>
</g>
</svg>
